<?xml version="1.0" encoding="utf-8"?>
<!-- Generator: Adobe Illustrator 25.0.1, SVG Export Plug-In . SVG Version: 6.00 Build 0)  -->
<svg version="1.1" id="Layer_1" xmlns="http://www.w3.org/2000/svg" xmlns:xlink="http://www.w3.org/1999/xlink" x="0px" y="0px"
	 width="330px" height="197px" viewBox="0 0 330 197" enable-background="new 0 0 330 197" xml:space="preserve">
<g>
	<path fill="#EAF3FB" d="M25.2,194.7c0,0-34.2-9.6-18.5-53.7c15.7-44.1,45.5-25.1,36.9-63.6C32.2,26.5,80.2-8.1,133.1,6
		c52.9,14.1,38.7,29.7,100.8,14c75.7-19.2,82.1,60.7,64.6,87.3c-17.6,26.6,47.9,30.4,20.9,87.4H25.2z"/>
	<g>
		<path fill="#CBDFF4" d="M264,94.6c0,0,8.8-17.8,13.6-16.3C282.5,80,264,94.6,264,94.6z"/>
		<path fill="#CBDFF4" d="M257.7,102.7c0,0,21-20.6,29.1-16.8c8.1,3.7-5,7.8-10,8.9C271.8,95.9,257.7,102.7,257.7,102.7z"/>
	</g>
	<path fill="#CBDFF4" d="M310.2,180.2c7.5-4.9,0.4-17.9,0.4-17.9s-17.5-4.7-18.7-7.3c-1.2-2.6,15.7,1.1,15.7,1.1
		c-1.2-5.5-12.2-16.9-12.2-16.9s-16.5,6.4-17.1,3.5s14.9-4.9,14.9-4.9c-3.2-4.6-10.8-7.5-10.8-7.5c-11.7-2.8-14.7,12.4-14.7,12.4
		s-5.8,2.1-13.6,0.7l0,0c0,0-1.5-0.4-3.9-0.5l0.5,1.4c0.4,0,0.8,0,1.2,0c0,0,0,0,0,0c0,0,0,0,0,0c0.2,0,0.6,0.1,1,0.1c0,0,0,0,0,0
		c0,0,0,0,0,0c1,0.2,1.7,0.2,2.2,0.3c0,0,0,0,0,0c3,0.4,7.1,1.1,8.2,2.1c0,0,0.2-0.2,0.5-0.5c-0.2,0.2-0.4,0.3-0.5,0.5
		c-4.4,4.1-1.3,16.3,2.3,22.6c3.6,6.2,4.5,2.7,6.4-1.9c1.9-4.6-1.4-11.9-0.9-14.5c0.5-2.6,2.7,0.2,3.9,4.8c1.1,4.6-2.6,8.3-0.9,15.7
		c1.7,7.4,17,8.5,17,8.5c-3.2-4.5-3.3-14.3-1.7-15.2c1.6-0.9,5.8,12.3,6.9,14.2C297.4,182.9,302.7,185.1,310.2,180.2z"/>
	<g>
		<path fill="#DEE9F7" d="M73.7,114.6c0,0-11-22.5-17.2-20.5C50.3,96.1,73.7,114.6,73.7,114.6z"/>
		<path fill="#DEE9F7" d="M81.6,124.8c0,0-26.4-25.9-36.7-21.2c-10.3,4.7,6.3,9.8,12.6,11.2C63.8,116.2,81.6,124.8,81.6,124.8z"/>
	</g>
	<path fill="#CBDFF4" d="M31.7,139.7c0.1-7.9,13.2-8.7,13.2-8.7s11.7,10.8,14.2,10.5c2.5-0.3-8.2-11.2-8.2-11.2
		c4.6-1.7,18.3,1.1,18.3,1.1s3,15.2,5.4,14.3c2.4-0.9-3.4-13.4-3.4-13.4c5,0.2,10.6,4.5,10.6,4.5c7.6,7.4-2.3,16.8-2.3,16.8
		s1.2,5.3,5.9,10.4l0,0c0,0,1,0.9,2.2,2.6l-1.3,0.3c-0.2-0.3-0.4-0.6-0.6-0.9c0,0,0,0,0,0c0,0,0,0,0,0c-0.1-0.2-0.3-0.4-0.6-0.7
		c0,0,0,0,0,0c0,0,0,0,0,0c-0.6-0.7-1-1.1-1.2-1.5c0,0,0,0,0,0c-1.7-2.1-17,3.5-23.3,3.8c-6.3,0.3-4.1-2.1-1.6-5.6
		c2.5-3.6,9.5-4.5,11.2-6.1c1.7-1.6-1.5-1.9-5.4-0.6c-3.9,1.3-4.9,5.8-11.2,8.1c-6.3,2.2-14.3-8.7-14.3-8.7
		c4.8,0.3,12.2-4.2,12.1-5.8c-0.1-1.6-11.9,1.5-13.8,1.5C35.8,150.4,31.6,147.6,31.7,139.7z"/>
	<g>
		<path fill="#F79134" d="M164.1,194.1h-93c-2,0-3.7-1.6-3.7-3.7V66.2c0-2.1,1.7-3.7,3.8-3.7l96.5,4.5v123.4
			C167.8,192.5,166.2,194.1,164.1,194.1z"/>
		<path fill="#F79134" d="M171.5,194.1h93c2,0,3.7-1.6,3.7-3.7V66.2c0-2.1-1.7-3.7-3.8-3.7L167.8,67v123.4
			C167.8,192.5,169.4,194.1,171.5,194.1z"/>
		<path fill="#B0C0E3" d="M74.5,67.9l-3,2.4c-0.4,0.3-0.7,0.9-0.7,1.4v120.4c0,1,0.8,1.8,1.8,1.8h7.5c1,0,1.8-0.9,1.8-1.9L74.5,67.9
			z"/>
		<path fill="#B0C0E3" d="M261.2,67.9l3,2.4c0.4,0.3,0.7,0.9,0.7,1.4v120.4c0,1-0.8,1.8-1.8,1.8h-7.5c-1,0-1.8-0.9-1.8-1.9
			L261.2,67.9z"/>
		<path fill="#FFF6F0" d="M164.4,194.1H76.9c-1.9,0-3.4-1.6-3.4-3.5v-120c0-2,1.6-3.6,3.6-3.5l76.4,3c8.1,0.3,14.4,7.1,14.4,15.4
			v105.2C167.8,192.5,166.3,194.1,164.4,194.1z"/>
		<path fill="#FFF6F0" d="M171,194.1H259c1.7,0,3.2-1.5,3.2-3.3V70.2c0-1.8-1.5-3.3-3.3-3.2l-78.3,3c-7.2,0.3-12.8,6.3-12.8,13.7
			v107.1C167.8,192.7,169.2,194.1,171,194.1z"/>
		<g>
			<rect x="167.6" y="90.9" fill="#FEDDC4" width="0.5" height="77.9"/>
		</g>
	</g>
	<g>
		<g>
			<path fill="#FAAB77" d="M213.6,83.1c0.2,0.2,0.2,0.4,0.1,0.7c0,0,0,0,0,0c-0.2,0.4-0.7,0.9-1.3,1.4c-0.1,0.1-0.2,0.1-0.2,0.2
				c0,0,0,0,0,0c0,0,0,0,0,0c-0.6,0.5-0.4,0.7-1.4,1.7c-1.2,1.2-2,1.2-2.2,1.1c-0.2-0.1,0.2-0.7,0.7-1.5c0,0,0-0.1,0.1-0.1
				c0.1-0.1,0.1-0.2,0.2-0.3c0.5-0.9,0.4-1.3,0.3-2.6c-0.1-1.1-1.6-6-1.6-6l2.3-0.4c0,0,0.7,3.9,1.4,4.5c0.4,0.3,0.9,0.3,1.2,0.6
				c0,0,0.1,0,0.1,0.1C213.2,82.8,213.4,82.9,213.6,83.1z"/>
			<path fill="#1E3966" d="M213.6,83.1c0.2,0.2,0.2,0.4,0.1,0.7c0,0,0,0,0,0c-0.2,0.4-0.7,0.9-1.3,1.4c-0.1,0.1-0.1,0.1-0.2,0.2
				c0,0,0,0,0,0c0,0,0,0,0,0c-0.6,0.5-0.4,0.7-1.4,1.7c-1.2,1.2-2,1.2-2.2,1.1c-0.2-0.1,0.2-0.7,0.7-1.5c0.2-0.1,1.3-0.5,2.1-1.5
				c0.7-0.9,1.2-2.1,1.7-2.8c0,0,0.1,0,0.1,0.1C213.2,82.8,213.4,82.9,213.6,83.1z"/>
			<path fill="#FAAB77" d="M195.2,81.6c-0.1,0.7-1.1,0.6-2.3,0.3c-1.1-0.3-0.9,0-2.4-0.1c-1.6-0.2-2.1-0.8-2.1-1
				c0-0.2,0.7-0.3,1.6-0.4c0.1,0,0.2,0,0.3,0c1-0.1,1.7-0.7,2.5-1.2c0.8-0.5,2.1-2.4,2.1-2.4l2.2,0.2c0,0-1.2,1.7-1.6,2.5
				c-0.3,0.4-0.3,1-0.2,1.5C195.3,81.1,195.3,81.3,195.2,81.6z"/>
			<path fill="#1E3966" d="M193,81.9c-1.1-0.3-0.9,0-2.4-0.1c-1.6-0.2-2.1-0.8-2.1-1c0-0.2,0.7-0.3,1.6-0.4l0,0c0,0,0.9,0.7,2.3,0.7
				c1.1,0,2.2-0.3,3-0.3c0,0.2,0,0.5,0,0.7C195.1,82.3,194.1,82.1,193,81.9z"/>
			<path fill="#1E3966" d="M211.1,79.6c0,0-0.2,0.1-0.4,0.2c-0.3,0.1-0.6,0.3-1,0.4c-0.4,0.1-0.8,0.1-1,0.1c-0.2,0-0.4,0-0.4,0
				l-2.6-7.2l-0.5-1.3l-0.5-1.4l-0.2-0.5l-0.9-2.3c0,0,2.1-5.3,4.2-2.8c0.3,0.3,0.5,0.8,0.7,1.3c0.2,0.4,0.3,0.8,0.4,1.3
				c0.1,0.3,0.2,0.7,0.3,1.1c0.3,1,0.5,2.2,0.7,3.3C210.8,75.7,211.1,79.6,211.1,79.6z"/>
			<path fill="#254790" d="M225.2,68.3l-10.6,0.4c-2.3-0.5-4.3-1.7-5.6-2.4c-0.1-0.1-0.2-0.1-0.3-0.2c-0.5-0.2-0.8-0.4-0.9-0.4
				c-0.8-0.2-1.2,1.1-1.9,2.8c-0.1,0.3-0.3,0.7-0.5,1c-0.1,0.2-0.3,0.6-0.6,0.9c-0.1,0.1-0.1,0.1-0.2,0.2c-2.3,2.7-8.4,7.8-8.4,7.8
				s-0.1,0-0.2,0c-0.4,0-1.2,0-1.6-0.2c-0.2-0.1-0.4-0.2-0.5-0.3c-0.2-0.1-0.2-0.2-0.2-0.2s7.2-14.1,11-18v0
				c0.1-0.1,0.1-0.1,0.2-0.2c0.4-0.4,0.8-0.7,1.1-0.8c1.3-0.4,9.5,0,9.5,0l0.3-0.4l0.4,0l0.1,0l0.4,0h0l0.5,0l0.8-0.1l2-0.1l0.3,0
				l3.8-0.3c0,0,0.2,0.4,0.4,1c0.1,0.3,0.2,0.5,0.3,0.9C225.3,62,226.2,65.8,225.2,68.3z"/>
			<path fill="#1E3966" d="M227.6,43.9c-1.9-1.6-3.2-2-3.4-4.6c-0.1-1.4-2-6-5.1-5.6c-0.3,0-0.5,0.1-0.8,0c-0.4,0-1,0-1.6,0.4
				c-1.5,0.9-4.3,9.1-2.4,11.9c0.3,0.5,0.8,0.9,1.5,1c0.1,0,0.2,0.1,0.2,0.1h0c0.3,0.2,0.7,0.4,1.1,0.6c2.2,1.2,5.1,2.9,6.6,3.7h0
				c0.1,0.1,0.2,0.1,0.3,0.1c0.2,0.1,0.3,0.2,0.4,0.2c0.2,0.1,0.3,0.1,0.3,0.1c0,0,0.4,0.1,0.9,0.3c0.7,0.2,1.8,0.2,2.5-0.2
				c0.3-0.2,0.6-0.4,0.8-0.7C230.4,49.9,230.8,46.7,227.6,43.9z"/>
			<path fill="#FAAB77" d="M218.2,45.8c0,0,1.4,0.5,2.4,0.1c0.9-0.4,1.6-1.9,1.6-1.9c-0.4,0-0.9-0.4-1.2-2.8l-0.2,0.1l-3,1.1
				c0,0,0.2,1,0.3,1.9C218.3,45,218.4,45.7,218.2,45.8z"/>
			<path fill="#F79351" d="M217.9,42.3c0,0,0.1,0.7,0.3,1.6c1.7-0.3,2.4-1.8,2.7-2.7L217.9,42.3z"/>
			<path fill="#FAAB77" d="M217.4,43.3c0,0,4.1-0.5,3.7-3.1c-0.4-2.6-0.1-4.3-2.7-4.1c-2.6,0.2-3,1.3-3.1,2.2
				C215.3,39.1,216.4,43.3,217.4,43.3z"/>
			<path fill="#1E3966" d="M215.5,36.8c0,0,2.6,2.3,4.4,2.5c1.8,0.2,2.5-0.4,2.5-0.4s-1-0.9-1.7-2.3c-0.2-0.4-0.6-0.7-1-0.7
				C218.4,35.8,216,35.7,215.5,36.8z"/>
			<path fill="#1E3966" d="M217.2,36.7c0,0-0.9,0.8-1.2,1.5c-0.3,0.6-0.4,2.1-0.2,2.6c0,0-1.3-2.7-0.6-4
				C216.1,35.4,217.2,36.7,217.2,36.7z"/>
			<path fill="#B0C0E3" d="M214.7,51.8c0.1,8.3,0,6.6,0.9,7.4c0.2,0.2,0.8,0.3,1.6,0.4c2.5,0.2,7-0.2,7.2-0.7
				c0.6-1.6,0.2-2.1,0.7-4.6c0.1-0.3,0.1-0.6,0.2-0.9c0.4-1.7,0.8-2.3-0.6-5c-1.3-2.5-2.6-4.5-2.8-4.5c-3.5,2-3.7,0.3-3.7,0.3
				S214.7,47.8,214.7,51.8z"/>
			<path fill="#254790" d="M211.1,79.6c0,0-0.2,0.1-0.4,0.2c-0.3,0.1-0.6,0.3-1,0.4c-0.4,0.1-0.8,0.1-1,0.1c-0.2,0-0.4,0-0.4,0
				l-2.6-7.2l0.8-1.3l2-3.3l0.6-1.1c0.1,0.3,0.2,0.7,0.3,1.1c0.3,1,0.5,2.2,0.7,3.3C210.8,75.7,211.1,79.6,211.1,79.6z"/>
			<path fill="#B0C0E3" d="M218.2,44.2c0,0-3.6,0.6-4,2.1c-0.4,1.5-3,10.5-3,10.5s1.8,0.3,2.7-0.5c0.8-0.8,3-7.7,3-7.7L218.2,44.2z"
				/>
			<path fill="#95B2DD" d="M217.3,59.6c2.5,0.2,7-0.2,7.2-0.7c0.6-1.6,0.2-2.1,0.7-4.6l-1.2-3.5c0,0,0.2,3.9-1,4.9
				c-1.1,1-4.7,1.9-5.2,2.8C217.5,58.8,217.3,59.2,217.3,59.6z"/>
			<path fill="#FAAB77" d="M220.2,58c0,0-2.5-0.6-2.9-0.4c-0.4,0.2-1.4,1-1.5,1.3c-0.1,0.3,0.9-0.2,1.2-0.3c0.2-0.1,0.8,0.1,1.1,0.2
				c1.2,0.4,1.9,0.2,1.9,0.2L220.2,58z"/>
			<path fill="#B0C0E3" d="M222,43.9c0,0,3.4,0.2,4.5,1.9c1.6,2.3,4.8,12.1,2.9,13.4c-2.1,1.5-9.6,0.3-9.6,0.3s-0.2-1.2,0.1-1.7
				c0.3-0.6,6-1.4,6.2-1.7c0.3-0.3-3.2-5.1-3.2-5.9C223,49.4,222,43.9,222,43.9z"/>
			<path fill="#FAAB77" d="M217.2,58.3c0,0-0.5,0.7-0.7,0.8c-0.2,0.1-0.3,0.1-0.3,0.1l0.4-0.6L217.2,58.3z"/>
			<path fill="#FAAB77" d="M217.3,57.6l-1.5,0.7c0,0,0.1,0.1,0.3,0.1c0.2,0,0.7-0.2,0.7-0.2L217.3,57.6z"/>
		</g>
		<g>
			<g>
				<polygon fill="#F79134" points="216.8,59.8 204.7,59.7 201.1,50.6 213.2,50.7 				"/>
				<polygon fill="#F47621" points="204.6,59.3 220.5,59.4 220.5,59.8 204.7,59.7 				"/>
			</g>
			<path fill="#FFFFFF" d="M207.8,55.2c-0.1-0.3,0.1-0.6,0.4-0.6c0.3,0,0.6,0.3,0.7,0.6c0.1,0.3-0.1,0.6-0.4,0.6
				C208.2,55.8,207.9,55.5,207.8,55.2z"/>
		</g>
	</g>
	<g>
		<g>
			<path fill="#254790" d="M85.3,194h65.8c4.2,0,7.5-3.4,7.5-7.5V185c0-4.2-3.4-7.5-7.5-7.5H85.3c-4.2,0-7.5,3.4-7.5,7.5v1.5
				C77.8,190.7,81.1,194,85.3,194z"/>
			<path fill="#FEDDC4" d="M122.5,183.5l-0.1,3.6c-0.1,3.2,2.5,5.9,5.7,5.9l42.9,0.7l0-0.7c-2.4-1.3-4-3.8-4-6.7l0-1.3
				c0-2.9,1.8-5.4,4.2-6.6l0,0l-42.9-0.7C125.2,177.8,122.5,180.3,122.5,183.5z"/>
			<g>
				<path fill="#233A72" d="M172.2,194H127c-2.9,0-5.2-3.6-5.2-8.3s2.3-8.3,5.2-8.3h45.2c0.4,0,0.7,0.3,0.7,0.7
					c0,0.4-0.3,0.7-0.7,0.7H127c-2.1,0-3.8,3.2-3.8,6.9s1.8,6.9,3.8,6.9h45.2c0.4,0,0.7,0.3,0.7,0.7
					C172.9,193.7,172.6,194,172.2,194z"/>
			</g>
			<g>
				<rect x="129" y="181.8" fill="#EEC09F" width="38.9" height="0.1"/>
			</g>
			<g>
				<rect x="152.6" y="183.4" fill="#EEC09F" width="14.8" height="0.1"/>
			</g>
			<g>
				<rect x="141.6" y="188.5" fill="#EEC09F" width="25.8" height="0.1"/>
			</g>
		</g>
		<path fill="#F47B3E" d="M133.8,181.9c0,0,2,0.8,2.2,3.7c0.2,2.8,0,4.3,0,4.3l-2.4-1.1l-2.4,1.1v-4.4c0,0-0.1-3.6-3.4-3.6H133.8z"
			/>
	</g>
	<g>
		<g>
			<path fill="#6B97CF" d="M81.1,177.4h49c3.1,0,5.7-2.5,5.7-5.7v-1.2c0-3.1-2.5-5.7-5.7-5.7h-49c-3.1,0-5.7,2.5-5.7,5.7v1.2
				C75.4,174.9,77.9,177.4,81.1,177.4z"/>
			<path fill="#FEDDC4" d="M108.8,169.5l0,2.7c0,2.4,1.9,4.4,4.3,4.4l32,0.5l0-0.5c-1.8-0.9-3-2.8-3-5l0-1c0-2.2,1.3-4,3.1-4.9l0,0
				l-32-0.5C110.8,165.2,108.8,167.1,108.8,169.5z"/>
			<g>
				<path fill="#4C82C3" d="M145.9,177.4h-33.7c-2.2,0-3.9-2.7-3.9-6.2c0-3.5,1.7-6.2,3.9-6.2h33.7c0.3,0,0.5,0.2,0.5,0.5
					s-0.2,0.5-0.5,0.5h-33.7c-1.6,0-2.9,2.4-2.9,5.2c0,2.8,1.3,5.2,2.9,5.2h33.7c0.3,0,0.5,0.2,0.5,0.5S146.1,177.4,145.9,177.4z"/>
			</g>
			<g>
				<rect x="118.3" y="168.3" fill="#EEC09F" width="24.4" height="0.1"/>
			</g>
			<g>
				<rect x="131.2" y="169.4" fill="#EEC09F" width="11" height="0.1"/>
			</g>
			<g>
				<rect x="123" y="173.3" fill="#EEC09F" width="19.2" height="0.1"/>
			</g>
		</g>
	</g>
	<g>
		<g>
			<path fill="#FAAB77" d="M251,154.6c0,0,0.6,1.9,0.6,2.3c-0.1,0.4-0.4,1.9-0.7,2.3c-0.3,0.4-0.4-1.6-0.6-1.8
				c-0.2-0.3,0,0.7-0.2,0.8c-0.2,0.1-0.5-0.8-0.6-1.1c-0.1-0.3,0.3-1.4,0.3-2.2C249.7,154.2,251,154.6,251,154.6z"/>
			<path fill="#1E3966" d="M236.4,139.4c-0.2-2.2,2.2-3.7,4.1-2.6c0,0,0.1,0,0.1,0.1c2.8,1.8,8.9,10.3,9.3,11.1
				c0.4,0.8,1.7,7.6,1.7,7.6s-1.5,0.6-2.2,0c0,0-2.5-6.4-2.8-6.7c-0.4-0.3-9.9-5.7-10-7.7C236.5,140.7,236.5,140,236.4,139.4z"/>
		</g>
		<g>
			
				<rect x="217" y="132.8" transform="matrix(-0.3288 -0.9444 0.9444 -0.3288 158.668 391.0019)" fill="#F79134" width="2.5" height="12.7"/>
			<polygon fill="#FEDCBB" points="209.5,142.2 212.7,142.4 211.9,140 			"/>
			<path fill="#FEDCBB" d="M225.6,136.4l0.1,0.2c0.2,0.6-0.1,1.3-0.7,1.5l-0.3,0.1l-0.8-2.4l0.3-0.1
				C224.8,135.5,225.4,135.8,225.6,136.4z"/>
		</g>
		<g>
			<path fill="#1B4279" d="M253.4,188.9c0,0,1.1,1,0.9,1.8c-0.2,0.7-1.2,1.2-1.4,2.1c-0.1,0.9-0.7,1.4-1.2,1.4s-2.4,0-2.4,0
				s-0.4-0.6,0.5-0.8c0.9-0.2,1.2-1.2,1.2-2.2c-0.1-1,0.1-2.3,0.1-2.3l1.9-0.4L253.4,188.9z"/>
			<path fill="#1B4279" d="M239.5,191.6c0,0,0.2,2.4-0.3,2.6l-6.4,0c0,0,0-0.7,1-0.9c1-0.2,2.8-0.8,3.1-2.1
				C237.3,189.8,239.5,191.6,239.5,191.6z"/>
			<path fill="#F79134" d="M234.1,158.3c0,0,0.3,4.1,0.7,9.1c0.5,6.7,1.2,15,1.2,16.6c0.1,2.7,0.6,7.1,0.6,7.1s1.1,1,3.2,0.6
				c0,0,1.9-6.2,2.4-12.8c0-0.1,0-0.2,0-0.3c0.5-6.7,1.3-20.8,1.3-20.8L234.1,158.3z"/>
			<path fill="#F47820" d="M234.1,158.3c0,0,0.3,4.1,0.7,9.1l7.4,11.5c0-0.1,0-0.2,0-0.3c0.5-6.7,1.3-20.8,1.3-20.8L234.1,158.3z"/>
			<path fill="#F79134" d="M235.6,158.7c0,0,6.1,15,10.1,22c4,7,5.2,9,5.2,9s2.3-0.9,2.5-1.5c0,0-1.5-13.6-4.2-16.9
				c-1.5-1.9-3.3-7.5-3.4-9.4c-0.1-2-0.5-5.8-0.5-5.8L235.6,158.7z"/>
		</g>
		<path fill="#FAAB77" d="M240.9,136.3c0,0-4.1,2.1-6.4,1.4c0,0,0.6-0.7,1.6-1.3c-0.1-0.5-0.2-0.9-0.2-1.2c-0.1-0.8-0.1-1.3-0.1-1.3
			l1.6-1.3l1.5-1.2C238.6,134.7,240.9,136.3,240.9,136.3z"/>
		<path fill="#254790" d="M244.9,157.2c-1.6,1-3.2,1.7-5,2.2c-2.1,0.5-4.8,0.4-5.7,0.5c-0.1,0-0.2,0-0.3-0.1c-0.1,0-0.5-2.7-0.8-6
			c0-0.1,0-0.3,0-0.4l0,0c-0.2-1.3-0.3-2.6-0.4-4c-0.1-1.1-0.2-2.1-0.2-3.1c-0.1-1.2-0.1-2.4-0.1-3.3c0-0.4,0-0.8,0.1-1.1
			c0.2-1.9,1.2-3.3,2-4.3l0.7-0.8c0.8,0.1,1.7-0.1,2.5-0.6c0.9-0.6,1.8-1.3,2-1.2c1.3,0.7,2.4,2.7,3.2,5.2c0.4,1.4,0.8,3.1,1,4.8
			c0.1,0.5,0.1,1.1,0.2,1.6c0,0.1,0,0.2,0,0.3c0.1,1.5,0.3,2.9,0.5,4.2c0.3,1.7,0.5,3.1,0.8,4.1c0.1,0.5,0.2,0.9,0.2,1.2
			C245.6,156.7,245.1,157.1,244.9,157.2z"/>
		<path fill="#F79454" d="M238.7,132.6c0,0-1,1.9-3,2.5c-0.1-0.8-0.1-1.3-0.1-1.3l1.6-1.3L238.7,132.6z"/>
		<path fill="#FAAB77" d="M234.9,133.8c0,0,3.9,0.6,4.2-1.9c0.3-2.4,1-4-1.5-4.4c-2.5-0.5-3.1,0.4-3.4,1.2
			C234,129.5,233.9,133.6,234.9,133.8z"/>
		<path fill="#2B3A68" d="M240.5,127.2c0,0,0.1-0.1,0.3-0.1c0,0-0.1-0.1-0.3-0.1c0-0.3-0.2-0.7-0.6-0.8c0,0,0.2,0.1,0.3,0.4
			c-0.5-0.5-1.6-0.9-4.6-0.6c-3.9,0.4-2.6,2.9-2.1,3.2c0.5,0.3,1.8-0.6,2.7-0.5c1,0.1,1.2,1.4,1.5,1.6c0.3,0.2,0.2-0.1,0.6-0.4
			c0.4-0.2,0.5,0.5,0.4,1c-0.1,0.5,0.5,1.1,0.5,1.1s0,0,0.6-0.7c0.6-0.7,1.1-3.4,0.8-4C240.6,127.3,240.5,127.3,240.5,127.2z"/>
		<path fill="#1E3966" d="M239.3,143.3c0,0-3.3,2.5-6.8,3.1c-0.1-1.2-0.1-2.4-0.1-3.3L239.3,143.3z"/>
		<g>
			<path fill="#FAAB77" d="M218.9,140c-0.1-0.1-0.7-2.3-1.9-2.1c-0.8,0.1-2,0.5-1.7,1.6c0.1,0.4,2.5,1.8,2.5,1.8L218.9,140z"/>
			<path fill="#254790" d="M239.7,138.4c1.9,1.1,1.7,3.9-0.3,4.8c0,0-0.1,0-0.1,0.1c-3.1,1.2-12.4,1.4-14.5,1.2
				c-2.3-0.2-7.1-3-7.1-3s0.4-1.6,1.3-1.8c0,0,5.1,1.5,7.1,1.6c1.3,0.1,10.3-4.8,12-3.7C238.6,137.7,239.1,138.1,239.7,138.4z"/>
		</g>
	</g>
	<g>
		<g>
			<polygon fill="#FEDDC4" points="194.5,183.1 173.4,184.1 173.4,163.1 194.5,162 			"/>
			<g>
				<polygon fill="#FFF6F0" points="175,181.6 181.2,170.1 185.8,176.1 188.1,173.5 192.9,180.7 				"/>
				<path fill="#FFF6F0" d="M184.2,168.4c0-0.9,0.7-1.6,1.6-1.7c0.9,0,1.6,0.6,1.6,1.5c0,0.9-0.7,1.6-1.6,1.7
					C184.9,169.9,184.2,169.3,184.2,168.4z"/>
			</g>
		</g>
		<g>
			<polygon fill="#FEDDC4" points="257,102.6 226.7,104.1 226.7,73.8 257,72.3 			"/>
			<g>
				<polygon fill="#FFF6F0" points="228.9,100.6 237.9,84 244.5,92.6 247.8,88.9 254.7,99.3 				"/>
				<path fill="#FFF6F0" d="M242.2,81.5c0-1.3,1-2.4,2.3-2.4c1.3-0.1,2.3,0.9,2.3,2.2c0,1.3-1,2.4-2.3,2.4
					C243.2,83.7,242.2,82.7,242.2,81.5z"/>
			</g>
		</g>
		<g>
			<polygon fill="#F79134" points="203.1,125.5 173.4,127 173.4,125.2 203.1,123.8 			"/>
			<polygon fill="#FEDDC4" points="189.3,129.7 173.4,130.5 173.4,129.6 189.3,128.8 			"/>
			<polygon fill="#FEDDC4" points="184.7,132.8 173.4,133.3 173.4,132.5 184.7,131.9 			"/>
			<polygon fill="#FEDDC4" points="198.1,132.1 186.8,132.7 186.8,131.8 198.1,131.3 			"/>
			<polygon fill="#FEDDC4" points="213.3,131.4 199.7,132 199.7,131.2 213.3,130.5 			"/>
			<polygon fill="#FEDDC4" points="183.2,135.7 173.4,136.1 173.4,135.3 183.2,134.8 			"/>
			<polygon fill="#FEDDC4" points="194.8,135.1 185.1,135.6 185.1,134.7 194.8,134.2 			"/>
			<polygon fill="#FEDDC4" points="208.1,134.4 196.2,135 196.2,134.2 208.1,133.6 			"/>
		</g>
		<g>
			<polygon fill="#F79134" points="203.1,106 173.4,107.5 173.4,105.8 203.1,104.3 			"/>
			<polygon fill="#FEDDC4" points="189.3,110.2 173.4,111 173.4,110.1 189.3,109.3 			"/>
			<polygon fill="#FEDDC4" points="208.3,109.3 192.4,110 192.4,109.2 208.3,108.4 			"/>
			<polygon fill="#FEDDC4" points="184.7,113.3 173.4,113.9 173.4,113 184.7,112.4 			"/>
			<polygon fill="#FEDDC4" points="198.1,112.6 186.8,113.2 186.8,112.3 198.1,111.8 			"/>
			<polygon fill="#FEDDC4" points="213.3,111.9 199.7,112.6 199.7,111.7 213.3,111 			"/>
			<polygon fill="#FEDDC4" points="183.2,116.2 173.4,116.7 173.4,115.8 183.2,115.3 			"/>
			<polygon fill="#FEDDC4" points="194.8,115.6 185.1,116.1 185.1,115.2 194.8,114.8 			"/>
			<polygon fill="#FEDDC4" points="208.1,115 196.2,115.5 196.2,114.7 208.1,114.1 			"/>
		</g>
		<g>
			<polygon fill="#F79134" points="247.3,108.4 226.5,109.5 226.5,108.2 247.3,107.2 			"/>
			<polygon fill="#FEDDC4" points="237.7,111.4 226.5,111.9 226.5,111.3 237.7,110.8 			"/>
			<polygon fill="#FEDDC4" points="251,110.7 239.8,111.3 239.8,110.7 251,110.1 			"/>
			<polygon fill="#FEDDC4" points="234.4,113.5 226.5,113.9 226.5,113.3 234.4,112.9 			"/>
			<polygon fill="#FEDDC4" points="243.8,113.1 235.9,113.5 235.9,112.9 243.8,112.5 			"/>
			<polygon fill="#FEDDC4" points="254.6,112.6 245,113 245,112.4 254.6,111.9 			"/>
			<polygon fill="#FEDDC4" points="233.4,115.6 226.5,115.9 226.5,115.3 233.4,115 			"/>
			<polygon fill="#FEDDC4" points="241.5,115.2 234.7,115.5 234.7,114.9 241.5,114.6 			"/>
			<polygon fill="#FEDDC4" points="250.9,114.7 242.5,115.1 242.5,114.5 250.9,114.1 			"/>
		</g>
		<g>
			<polygon fill="#F79134" points="203.1,145.8 173.4,147.3 173.4,145.6 203.1,144.1 			"/>
			<polygon fill="#FEDDC4" points="189.3,150 173.4,150.8 173.4,149.9 189.3,149.1 			"/>
			<polygon fill="#FEDDC4" points="208.3,149.1 192.4,149.8 192.4,149 208.3,148.2 			"/>
			<polygon fill="#FEDDC4" points="184.7,153.1 173.4,153.6 173.4,152.8 184.7,152.2 			"/>
			<polygon fill="#FEDDC4" points="198.1,152.4 186.8,153 186.8,152.1 198.1,151.6 			"/>
			<polygon fill="#FEDDC4" points="213.3,151.7 199.7,152.4 199.7,151.5 213.3,150.8 			"/>
			<polygon fill="#FEDDC4" points="183.2,156 173.4,156.5 173.4,155.6 183.2,155.1 			"/>
			<polygon fill="#FEDDC4" points="194.8,155.4 185.1,155.9 185.1,155 194.8,154.5 			"/>
			<polygon fill="#FEDDC4" points="208.1,154.8 196.2,155.3 196.2,154.5 208.1,153.9 			"/>
		</g>
		<g>
			<polygon fill="#F79134" points="222.8,172.9 199.9,174 199.9,172.3 222.8,171.2 			"/>
			<polygon fill="#FEDDC4" points="212.2,176.9 199.9,177.5 199.9,176.6 212.2,176 			"/>
			<polygon fill="#FEDDC4" points="226.8,176.2 214.5,176.8 214.5,175.9 226.8,175.3 			"/>
			<polygon fill="#FEDDC4" points="208.6,180 199.9,180.4 199.9,179.5 208.6,179.1 			"/>
			<polygon fill="#FEDDC4" points="218.9,179.4 210.2,179.9 210.2,179 218.9,178.6 			"/>
			<polygon fill="#FEDDC4" points="230.7,178.9 220.2,179.4 220.2,178.5 230.7,178 			"/>
			<polygon fill="#FEDDC4" points="207.4,182.8 199.9,183.2 199.9,182.3 207.4,182 			"/>
			<polygon fill="#FEDDC4" points="216.4,182.4 208.9,182.8 208.9,181.9 216.4,181.5 			"/>
			<polygon fill="#FEDDC4" points="226.7,181.9 217.5,182.3 217.5,181.5 226.7,181 			"/>
		</g>
	</g>
	<g>
		<g>
			<polygon fill="#FEDDC4" points="156.9,113 123.9,111.8 123.9,78.8 156.9,80 			"/>
			<g>
				<polygon fill="#FFF6F0" points="126.4,108.1 136.1,90.9 143.3,100.9 146.9,97.2 154.5,109.1 				"/>
				<path fill="#FFF6F0" d="M140.8,88.5c0-1.4,1.1-2.5,2.5-2.4c1.4,0.1,2.5,1.2,2.5,2.6s-1.1,2.5-2.5,2.4
					C141.9,91.1,140.8,89.9,140.8,88.5z"/>
			</g>
		</g>
		<g>
			<polygon fill="#F79134" points="153,126 123.4,125 123.4,123.2 153,124.3 			"/>
			<polygon fill="#FEDDC4" points="139.2,129 123.4,128.4 123.4,127.6 139.2,128.2 			"/>
			<polygon fill="#FEDDC4" points="134.6,131.7 123.4,131.3 123.4,130.5 134.6,130.9 			"/>
			<polygon fill="#FEDDC4" points="148,132.2 136.8,131.8 136.8,130.9 148,131.3 			"/>
			<polygon fill="#FEDDC4" points="163.3,132.8 149.6,132.3 149.6,131.4 163.3,131.9 			"/>
			<polygon fill="#FEDDC4" points="133.1,134.5 123.4,134.1 123.4,133.3 133.1,133.6 			"/>
			<polygon fill="#FEDDC4" points="144.7,134.9 135,134.6 135,133.7 144.7,134 			"/>
			<polygon fill="#FEDDC4" points="158,135.4 146.1,135 146.1,134.1 158,134.5 			"/>
		</g>
		<g>
			<polygon fill="#F79134" points="153,146.3 123.4,145.3 123.4,143.5 153,144.6 			"/>
			<polygon fill="#FEDDC4" points="139.2,149.3 123.4,148.8 123.4,147.9 139.2,148.5 			"/>
			<polygon fill="#FEDDC4" points="158.2,150 142.3,149.5 142.3,148.6 158.2,149.2 			"/>
			<polygon fill="#FEDDC4" points="134.6,152 123.4,151.6 123.4,150.8 134.6,151.2 			"/>
			<polygon fill="#FEDDC4" points="148,152.5 136.8,152.1 136.8,151.3 148,151.7 			"/>
			<polygon fill="#FEDDC4" points="163.3,153.1 149.6,152.6 149.6,151.7 163.3,152.2 			"/>
			<polygon fill="#FEDDC4" points="133.1,154.8 123.4,154.4 123.4,153.6 133.1,153.9 			"/>
			<polygon fill="#FEDDC4" points="144.7,155.2 135,154.9 135,154 144.7,154.4 			"/>
			<polygon fill="#FEDDC4" points="158,155.7 146.1,155.3 146.1,154.4 158,154.8 			"/>
		</g>
		<g>
			<polygon fill="#F79134" points="110.9,75.6 81.2,74.5 81.2,72.8 110.9,73.9 			"/>
			<polygon fill="#FEDDC4" points="97.1,78.6 81.2,78 81.2,77.1 97.1,77.7 			"/>
			<polygon fill="#FEDDC4" points="116.1,79.3 100.2,78.7 100.2,77.8 116.1,78.4 			"/>
			<polygon fill="#FEDDC4" points="92.5,81.3 81.2,80.9 81.2,80 92.5,80.4 			"/>
			<polygon fill="#FEDDC4" points="105.9,81.8 94.7,81.4 94.7,80.5 105.9,80.9 			"/>
			<polygon fill="#FEDDC4" points="121.2,82.3 107.5,81.8 107.5,81 121.2,81.5 			"/>
			<polygon fill="#FEDDC4" points="91,84 81.2,83.7 81.2,82.8 91,83.2 			"/>
			<polygon fill="#FEDDC4" points="102.6,84.5 92.9,84.1 92.9,83.2 102.6,83.6 			"/>
			<polygon fill="#FEDDC4" points="115.9,84.9 104,84.5 104,83.7 115.9,84.1 			"/>
		</g>
	</g>
	<g>
		<path fill="#ACCBEB" d="M95.6,40.7l2.6-0.6l8.6,11.6l-2.9,0.7l-1.9-2.6L96.6,51l-0.5,3.2l-2.9,0.7L95.6,40.7z M100.4,47.5
			l-2.7-3.8L97,48.3L100.4,47.5z"/>
	</g>
	<g>
		<path fill="#ACCBEB" d="M110.2,33.1c0.4-3.7,3.5-6.5,7.5-6.1c2.5,0.2,3.8,1.3,4.9,2.6l-1.9,1.8c-0.9-1-1.7-1.6-3.2-1.8
			c-2.2-0.2-4,1.5-4.2,3.7c-0.2,2.2,1.1,4.3,3.4,4.5c1.5,0.1,2.5-0.4,3.6-1.2l1.6,2.1c-1.5,1.3-3.1,1.9-5.6,1.7
			C112.4,40.1,109.8,36.9,110.2,33.1z"/>
	</g>
	<g>
		<path fill="#ACCBEB" d="M149.9,29.5l6-1c1.5-0.2,2.7,0,3.6,0.6c0.7,0.5,1.1,1.2,1.3,2.1c0.2,1.5-0.4,2.4-1.3,3.1
			c1.6,0.3,2.7,1.1,3,2.8c0.4,2.4-1.4,3.9-4.3,4.4l-6.2,1L149.9,29.5z M156.2,33.9c1.3-0.2,2-0.7,1.8-1.7c-0.1-0.9-0.9-1.2-2.1-1
			l-2.8,0.5l0.4,2.8L156.2,33.9z M157.8,39c1.3-0.2,2-0.8,1.8-1.8c-0.1-0.9-0.9-1.3-2.3-1.1l-3.3,0.5l0.5,2.9L157.8,39z"/>
	</g>
	<g>
		<path fill="#ACCBEB" d="M127.3,51.2c0.3-3.7,3.5-6.5,7.5-6.2c2.4,0.2,3.7,1,5,2.2l-2,2c-0.9-0.9-1.8-1.5-3.3-1.6
			c-2.1-0.2-3.9,1.5-4.1,3.8c-0.2,2.4,1.3,4.3,3.6,4.5c1.1,0.1,2-0.1,2.8-0.6l0.2-1.9l-2.9-0.2l0.2-2.5l5.7,0.5l-0.5,5.7
			c-1.4,1-3.4,1.8-5.8,1.6C129.5,58.3,126.9,55.2,127.3,51.2z"/>
	</g>
	<g>
		<path fill="#ACCBEB" d="M287.3,65.3c-1.2,0.5-2.6,0.6-4.1,0.3c-4-0.8-6.2-4.4-5.4-8.1c0.8-3.7,4.3-6.1,8.3-5.2
			c4,0.8,6.2,4.4,5.4,8.1c-0.3,1.3-1,2.5-1.9,3.5l1.1,1.4l-2.2,1.6L287.3,65.3z M285.6,63l-1.7-2.2l2.2-1.6l1.7,2.4
			c0.4-0.5,0.6-1,0.7-1.7c0.5-2.2-0.8-4.4-3-4.9c-2.3-0.5-4.2,1-4.7,3.2c-0.5,2.2,0.8,4.4,3,4.9C284.5,63.2,285.1,63.1,285.6,63z"/>
	</g>
	<g>
		<path fill="#ACCBEB" d="M257.7,37.5l2.6-0.4l7.2,7.2l-1.1-8l2.8-0.4L271,49l-2.4,0.3l-7.4-7.4l1.1,8.3l-2.8,0.4L257.7,37.5z"/>
	</g>
	<g>
		<path fill="#ACCBEB" d="M171.7,44.4l3.1,0.3l1.8,9.2l3.9-8.6l2.5,0.3l2,9.2l3.6-8.6l3,0.3l-5.8,12.7l-2.5-0.3l-2.1-8.9l-3.8,8.3
			l-2.5-0.3L171.7,44.4z"/>
	</g>
	<g>
		<path fill="#F47B3E" d="M36.3,190.2c0,0.2,0,0.3,0,0.5c0.1,0.5,0.2,1,0.4,1.4c0.2,0.3,0.4,0.6,0.7,0.9c0.7,0.7,1.7,1.1,2.7,1.1
			h54.2c2.1,0,3.9-1.7,3.9-3.9c0-1.1-0.4-2-1.1-2.7c-0.7-0.7-1.7-1.1-2.7-1.1H40.2C38.1,186.4,36.3,188.1,36.3,190.2z"/>
		<path fill="#F47B3E" d="M40.5,185.7h18.6c0.3,0,0.6-0.3,0.6-0.6l0,0c0-0.3-0.3-0.6-0.6-0.6H40.5c-0.3,0-0.6,0.3-0.6,0.6l0,0
			C39.9,185.4,40.2,185.7,40.5,185.7z"/>
		
			<rect x="41.5" y="185.7" transform="matrix(-1 -1.224647e-16 1.224647e-16 -1 85.0281 372.086)" fill="#F15C22" width="2" height="0.7"/>
		<path fill="#F15C22" d="M36.8,192.1c0.2,0.3,0.4,0.6,0.7,0.9c0.7,0.7,1.7,1.1,2.7,1.1h11.5v-2H36.8z"/>
		<path fill="#F79134" d="M105.4,189.1v2.3c0,0.2,0,0.5-0.1,0.7c-0.3,1.2-1.4,2-2.6,2H46.2c-1.3,0-2.3-0.9-2.6-2
			c-0.1-0.2-0.1-0.5-0.1-0.7v-2.3c0-1.5,1.2-2.7,2.7-2.7h56.5C104.2,186.4,105.4,187.6,105.4,189.1z"/>
		<path fill="#F58022" d="M105.3,192.1c-0.3,1.2-1.4,2-2.6,2H46.2c-1.3,0-2.3-0.9-2.6-2H105.3z"/>
		<g>
			<path fill="#CBDFF4" d="M99.8,190.3c0,1.2,0.4,2.3,1.1,3c0,0,0,0,0,0c0.5,0.5,1.2,0.8,1.9,0.8c1.1,0,4-1.7,5.7-2.9
				c0.9-0.6,1.5-1,1.5-1s-0.6-0.4-1.5-1c-1.8-1.1-4.6-2.9-5.7-2.9c-0.3,0-0.6,0.1-0.9,0.2c-0.5,0.2-1,0.6-1.3,1
				c-0.4,0.5-0.7,1.2-0.8,1.9c0,0,0,0,0,0C99.8,189.8,99.8,190,99.8,190.3z"/>
			<path fill="#A1C7EA" d="M99.8,190.3c0,1.2,0.4,2.3,1.1,3l8.7-3l-9.8-0.7C99.8,189.8,99.8,190,99.8,190.3z"/>
			<path fill="#E2EFFA" d="M100.7,187.6l8.7,2.4l-7.4-3.4C101.5,186.8,101,187.1,100.7,187.6z"/>
			<path fill="#F79134" d="M108.1,190.3c0,0.5,0.2,0.9,0.6,1c0.9-0.6,1.5-1,1.5-1s-0.6-0.4-1.5-1
				C108.3,189.4,108.1,189.8,108.1,190.3z"/>
		</g>
	</g>
	<g>
		<g>
			<path fill="#1E3966" d="M82.9,194.4L82.9,194.4c0.4,0,0.8-0.3,0.9-0.6l23.4-71.8c0.1-0.4-0.1-0.6-0.5-0.6l0,0
				c-0.4,0-0.8,0.3-0.9,0.6l-23.4,71.8C82.3,194.1,82.5,194.4,82.9,194.4z"/>
			<path fill="#1E3966" d="M64.1,194.2L64.1,194.2c0.4,0,0.8-0.3,0.9-0.6l23.4-71.8c0.1-0.4-0.1-0.6-0.5-0.6l0,0
				c-0.4,0-0.8,0.3-0.9,0.6l-23.4,71.8C63.5,194,63.7,194.2,64.1,194.2z"/>
			<path fill="#1E3966" d="M84.4,131.8l18.9,0.1c0.4,0,0.8-0.3,0.9-0.6l0,0c0.1-0.3-0.1-0.6-0.5-0.6l-18.9-0.1
				c-0.4,0-0.8,0.3-0.9,0.6l0,0C83.8,131.6,84,131.8,84.4,131.8z"/>
			<path fill="#1E3966" d="M80.3,144.4l18.9,0.1c0.4,0,0.8-0.3,0.9-0.6l0,0c0.1-0.3-0.1-0.6-0.5-0.6l-18.9-0.1
				c-0.4,0-0.8,0.3-0.9,0.6l0,0C79.7,144.1,79.9,144.4,80.3,144.4z"/>
			<path fill="#1E3966" d="M76.3,156.4l18.9,0.1c0.4,0,0.8-0.3,0.9-0.6l0,0c0.1-0.3-0.1-0.6-0.5-0.6l-18.9-0.1
				c-0.4,0-0.8,0.3-0.9,0.6l0,0C75.8,156.2,76,156.4,76.3,156.4z"/>
			<path fill="#1E3966" d="M71.9,170l18.9,0.1c0.4,0,0.8-0.3,0.9-0.6l0,0c0.1-0.3-0.1-0.6-0.5-0.6l-18.9-0.1c-0.4,0-0.8,0.3-0.9,0.6
				l0,0C71.4,169.8,71.6,170,71.9,170z"/>
			<path fill="#1E3966" d="M67.3,184.3l18.9,0.1c0.4,0,0.8-0.3,0.9-0.6l0,0c0.1-0.3-0.1-0.6-0.5-0.6L67.7,183
				c-0.4,0-0.8,0.3-0.9,0.6l0,0C66.7,184,66.9,184.2,67.3,184.3z"/>
		</g>
		<g>
			<path fill="#FAAB77" d="M102.3,105.7c0,0,0.2-0.5,0.4-0.7c0.1-0.2,0.8-0.9,0.9-0.8c0.1,0.2,0.5,1.2,0.3,1.5
				c-0.2,0.3,0,0.8-1.1,1.1L102.3,105.7z"/>
			<path fill="#F47820" d="M89.9,102.5c0,0,5.7,4.8,7.9,4.3c1.7-0.3,4.4-1.3,4.4-1.3l0.5,1.4c0,0-2.4,3.2-4.9,3.3
				c-3.9,0-6.8-1.7-6.8-1.7L89.9,102.5z"/>
			<path fill="#1D3F75" d="M79.9,152.7c0,0,0.2,2.7,0.7,2.7c0.1,0,2.6,0,2.6,0l3.3,0c0,0,0-0.8-1-0.9c-1-0.2-2.5-0.8-3.1-2.1
				C81.8,151,79.9,152.7,79.9,152.7z"/>
			<path fill="#254790" d="M79.7,152.9c0,0,1,0.3,1.8,0.3c0.9,0,1.6-0.2,1.6-0.2s0.2-1.8,1.2-5.8c0.5-2.1,1.3-4.8,2.4-8.1
				c3-9.2,3.9-14.6,4-15.1c0,0,0,0,0,0l0,0l-9.3-4.1c0,0,1.1,12.7-0.3,17.5c-0.2,0.7-0.4,1.5-0.5,2.3
				C79.7,145.1,79.7,152.9,79.7,152.9z"/>
			<path fill="#1E3966" d="M84.3,147.2c0.5-2.1,1.3-4.8,2.4-8.1c3-9.2,3.9-14.6,4-15.1c0,0,0,0,0,0l-9.3-4.1c0,0,1.1,12.7-0.3,17.5
				C81,138.1,84.3,147.2,84.3,147.2z"/>
			<path fill="#1D3F75" d="M87.2,152.7c0,0,0.2,2.7,0.7,2.7c0.1,0,2.6,0,2.6,0l3.3,0c0,0,0-0.8-1-0.9c-1-0.2-2.5-0.8-3.1-2.1
				C89,151,87.2,152.7,87.2,152.7z"/>
			<path fill="#254790" d="M92.4,120.2c0,0,0.1,8.2-1.3,18.3c-1.4,10.1-0.9,14.3-0.9,14.3s-1,0.3-1.4,0.3c-1,0.1-2-0.2-2-0.2
				s-2-10.1-1.4-15.1c0.6-5-2.8-17.3-2.8-17.3L92.4,120.2z"/>
			<path fill="#FAAB77" d="M85.8,101l1.8,1.2l1.6-0.5c0.3-0.4,0.4-1.3,0.4-2c0-0.7-0.1-1.3-0.1-1.3l-2.4-1.1L86.3,97
				c0,0,0.1,0.7,0.1,0.9C86.5,99.8,85.8,101,85.8,101z"/>
			<path fill="#F79134" d="M92.5,122.5c-2.3,2.2-10.8,1.8-11.3-0.6c-0.5-2.4,0.6-20.4,4.4-21.5c0.8-0.2,5.1,1.1,5.1,1.1
				s0.7,1.8,1.1,4c0.1,0.4,0.3,5,0.5,9.3c0.1,2,0.2,4,0.2,5.4C92.5,121.6,92.5,122.5,92.5,122.5z"/>
			<path fill="#F89E63" d="M86.5,97.9c0.5,0.8,2.2,1.6,3.2,1.9c0-0.7-0.1-1.3-0.1-1.3l-2.4-1.1C86.6,97.4,86.3,97.5,86.5,97.9z"/>
			<path fill="#FAAB77" d="M90.5,98.3c0,0-3.9,1.2-4.7-1.2c-0.7-2.5-1.7-4,0.8-4.9c2.5-0.9,3.3-0.1,3.7,0.7
				C90.8,93.7,91.5,97.9,90.5,98.3z"/>
			<path fill="#1A3763" d="M90.2,92.7c0,0-0.3,2.9-0.8,2.7c-0.6-0.1-1.2-0.4-1.2,0.5c0.1,0.9-0.6,2.3-1.4,2.3
				c-1.8,0-3.8-4.7-3.3-5.6C84.9,90,92.3,89.5,90.2,92.7z"/>
			<path fill="#F47820" d="M89.6,100.4c-0.1,0-2.9-1.3-3.3-1.2c-0.3,0.1-0.8,1.1-0.8,1.1l5.1,1.1C90.6,101.5,90.2,100.7,89.6,100.4z
				"/>
			<g>
				<path fill="#0A4E89" d="M107.5,114.4l-16.1,15.2c-0.3,0.3-0.7,0.4-0.9,0.2l-0.5-0.6c-0.2-0.2-0.1-0.6,0.3-0.9l16.1-15.2
					c0.3-0.3,0.7-0.4,0.9-0.2l0.5,0.6C108,113.7,107.8,114.1,107.5,114.4z"/>
				<path fill="#F47B3E" d="M98.5,122.9l-7.1,6.7c-0.3,0.3-0.7,0.4-0.9,0.2l-0.5-0.6c-0.2-0.2-0.1-0.6,0.3-0.9l7.1-6.7L98.5,122.9z"
					/>
				<path fill="#0A4E89" d="M103.8,108.7c0.6,2,1.8,4,3.4,5.5c5.1,4.8,13.1,4.5,17.9-0.5c4.7-5,4.5-12.9-0.3-17.7
					c-0.1-0.1-0.1-0.1-0.2-0.2c-5.1-4.8-13.1-4.5-17.9,0.5C103.5,99.7,102.5,104.5,103.8,108.7z M107.4,97c2.8-3,6.8-4.1,10.5-3.5
					c2.2,0.4,4.3,1.4,6,3c4.7,4.4,4.9,11.8,0.5,16.5c-1.6,1.7-3.6,2.8-5.8,3.4c-3.7,0.9-7.7-0.1-10.7-2.9
					C103.2,109,103,101.7,107.4,97z"/>
				<g opacity="0.5">
					<path fill="#B0CDEB" d="M124.4,113c-1.6,1.7-3.6,2.8-5.8,3.4c-3.7,0.9-7.7-0.1-10.7-2.9c-4.7-4.4-4.9-11.8-0.5-16.5
						c2.8-3,6.8-4.1,10.5-3.5c2.2,0.4,4.3,1.4,6,3C128.6,100.9,128.8,108.3,124.4,113z"/>
				</g>
			</g>
			<path fill="#F47820" d="M92.5,120.3c-8.9-6.3-8.2-14.8-8.2-14.8c3.3,1.8,6.5,5.9,8,9.4C92.4,116.9,92.4,118.8,92.5,120.3z"/>
			<g>
				<path fill="#F79134" d="M101.2,117.4c0.6-0.1,1-0.6,1.1-0.7c0,0,0.3,0,0,0.6c0,0-0.1,0.2-0.1,0.3c0,0,0,0.1,0,0.1
					c0.4,0,0.7-0.1,1.4,0c0.1,0,0.1,0.3,0.1,0.3c0,0.2,0,0.4-0.2,0.6c-0.1,0.1-0.4,0.3-1.1,0.6c-0.3,0.1-1,0-1.7-0.2l-0.6-0.3
					l0.2-1.1l0.1,0C100.7,117.7,101,117.4,101.2,117.4z"/>
				<path fill="#F79134" d="M87.1,101.5c0,0-8,1.5,2.4,13.1c1.7,1.9,10.6,4.3,10.6,4.3s0.9-0.8,0.4-1.4c0,0-6.2-4.5-7.5-5.2
					c-0.6-0.3-2.4-7.1-3.4-8.8C88.6,101.9,87.1,101.5,87.1,101.5z"/>
			</g>
			<path fill="#FAAB77" d="M102.5,105.8c0,0,0.3-0.5,0.3-0.8c0.1-0.3,0.4-1,0.5-1.2c0.1-0.1,0.2,0,0.3,0.2c0,0.1,0,0.3-0.1,0.5
				c-0.1,0.4-0.1,0.8-0.2,1C103.1,106.1,102.5,105.8,102.5,105.8z"/>
		</g>
	</g>
	<path fill="#2E3555" d="M325.6,195.3L4.8,195.2c-0.2,0-0.4-0.2-0.4-0.4l0-0.3c0-0.2,0.2-0.4,0.4-0.4l320.8,0.1
		c0.2,0,0.4,0.2,0.4,0.4v0.3C326,195.1,325.8,195.3,325.6,195.3z"/>
</g>
</svg>
